<svg xmlns="http://www.w3.org/2000/svg" width="55" height="55" viewBox="0 0 55 55" fill="none">
<g clip-path="url(#clip0_90_496)">

<path d="M47.5285 5.6845L38.971 55.1797L0.385742 23.0211L47.5285 5.6845Z" fill="#A239EA"/>
<path d="M48.426 49.4593L0.612183 34.0696L37.847 0.356499L48.426 49.4593Z" fill="#5C33F6"/>
<path d="M23.8247 26.4345C23.5124 25.979 22.89 25.8629 22.4345 26.1753C21.979 26.4876 21.8629 27.11 22.1753 27.5655L23.8247 26.4345ZM27.8 34L26.9753 34.5655L27.9229 35.9475L28.6893 34.4573L27.8 34ZM35.8893 20.4573C36.1419 19.9662 35.9485 19.3633 35.4573 19.1107C34.9662 18.8581 34.3633 19.0515 34.1107 19.5427L35.8893 20.4573ZM22.1753 27.5655L26.9753 34.5655L28.6247 33.4345L23.8247 26.4345L22.1753 27.5655ZM28.6893 34.4573L35.8893 20.4573L34.1107 19.5427L26.9107 33.5427L28.6893 34.4573Z" fill="white"/>
</g>
<defs>
<clipPath id="clip0_90_496">
<rect width="224" height="55" fill="white"/>
</clipPath>
</defs>
</svg>